<svg width="651" height="39" viewBox="0 0 651 39" fill="none" xmlns="http://www.w3.org/2000/svg">
<path d="M437.42 25.927C422.263 25.3698 407.419 25.136 393.665 25.3897C378.463 25.6683 361.779 26.3299 344.722 27.2153C363.301 30.7969 379.692 34.5525 389.089 36.796C399.122 34.3038 416.92 30.0607 437.42 25.927Z" fill="#77DB73"/>
<path d="M516.736 14.6701C492.591 15.8391 462.914 20.7935 437.42 25.9321C510.897 28.6381 591.79 38.9998 591.79 38.9998H650.304C650.304 38.9998 570.947 12.0386 516.736 14.6701Z" fill="#77DB73"/>
<path d="M389.089 36.7962C394.372 38.0597 397.446 38.8406 397.446 38.8406L380.981 38.8506C380.612 38.9451 380.418 38.9998 380.418 38.9998H591.79C591.79 38.9998 510.901 28.6382 437.42 25.9321C416.92 30.0609 399.122 34.304 389.089 36.7962Z" fill="#38BC34"/>
<path d="M189.72 10.7353C167.271 5.50725 144.677 1.9058 121.865 0.617435C107.827 -0.173491 93.7844 0.0453788 79.7517 1.29892C63.0726 2.78626 46.5278 5.45751 30.0427 8.90476C3.8277 14.3865 -49.5474 36.3434 -48.9953 38.945C20.7257 38.945 90.4466 38.945 160.163 38.945C162.127 38.1243 190.74 26.34 229.908 20.7587C216.547 17.2319 203.156 13.8642 189.72 10.7353Z" fill="#FFDB33"/>
<path d="M344.722 27.2153C319.636 22.3802 290.571 17.8784 269.365 17.8784C255.506 17.8784 242.19 19.0176 229.908 20.7685C243.548 24.375 257.153 28.1654 270.733 32.0952C293.889 30.2995 319.711 28.5136 344.722 27.2153Z" fill="#FFDB33"/>
<path d="M277.468 34.0452C282.438 35.4977 288.293 37.4228 293.267 38.9101L380.98 38.8504C382.114 38.5519 384.935 37.8257 389.083 36.796C379.687 34.5525 363.296 30.7919 344.717 27.2153C319.706 28.5136 293.884 30.3044 270.728 32.0952C272.981 32.7419 275.225 33.3885 277.468 34.0452Z" fill="#77BC17"/>
<path d="M397.45 38.8404C397.45 38.8404 394.376 38.0594 389.094 36.7959C384.945 37.8256 382.124 38.5568 380.99 38.8503L397.45 38.8404Z" fill="#38A20A"/>
<path d="M270.733 32.0952C257.153 28.1655 243.543 24.375 229.908 20.7686C190.74 26.3498 162.127 38.1291 160.163 38.9549C170.763 38.9549 181.358 38.9549 191.959 38.9549C196.297 38.5221 229.227 35.3037 270.733 32.0952Z" fill="#FFBC0A"/>
<path d="M270.733 32.0952C229.227 35.3037 196.297 38.5221 191.954 38.9499C205.599 38.9499 219.239 38.9499 232.883 38.9499L293.267 38.9101C288.288 37.4228 282.438 35.5027 277.469 34.0452C275.225 33.3886 272.982 32.7419 270.733 32.0952Z" fill="#E4B605"/>
</svg>
